PathFileType	4	(X/Y/Z)	/Users/itak/Documents/Research/Walk-IL/dataset/trc/00394_00012.trc
DataRate	CameraRate	NumFrames	NumMarkers	Units	OrigDataRate	OrigDataStartFrame	OrigNumFrames
100.000000	100.000000	4	54	mm	100.000000	85	683
Frame#	Time	RPSI			LPSI			L3			STRN			T10			C7			CLAV			RBAK			LBAK			LSHO			LUPA			LAEL			LAOL			LWTS			LWPS			LFRA			LIFD			LHPS			RSHO			RUPA			RAEL			RAOL			RWTS			RWPS			RFRA			RIFD			RHTS			RHPS			RBHD			LFHD			RFHD			LBHD			RHIP			RASI			LASI			LKNE			LTHI			LANK			LTIP			LTOE			LMT1			LMT5			LHEE			RKNE			RTHI			RANK			RTIP			RTOE			RMT1			RMT5			RHEE			LHTS			LHIP			*53			
		X1	Y1	Z1	X2	Y2	Z2	X3	Y3	Z3	X4	Y4	Z4	X5	Y5	Z5	X6	Y6	Z6	X7	Y7	Z7	X8	Y8	Z8	X9	Y9	Z9	X10	Y10	Z10	X11	Y11	Z11	X12	Y12	Z12	X13	Y13	Z13	X14	Y14	Z14	X15	Y15	Z15	X16	Y16	Z16	X17	Y17	Z17	X18	Y18	Z18	X19	Y19	Z19	X20	Y20	Z20	X21	Y21	Z21	X22	Y22	Z22	X23	Y23	Z23	X24	Y24	Z24	X25	Y25	Z25	X26	Y26	Z26	X27	Y27	Z27	X28	Y28	Z28	X29	Y29	Z29	X30	Y30	Z30	X31	Y31	Z31	X32	Y32	Z32	X33	Y33	Z33	X34	Y34	Z34	X35	Y35	Z35	X36	Y36	Z36	X37	Y37	Z37	X38	Y38	Z38	X39	Y39	Z39	X40	Y40	Z40	X41	Y41	Z41	X42	Y42	Z42	X43	Y43	Z43	X44	Y44	Z44	X45	Y45	Z45	X46	Y46	Z46	X47	Y47	Z47	X48	Y48	Z48	X49	Y49	Z49	X50	Y50	Z50	X51	Y51	Z51	X52	Y52	Z52	X53	Y53	Z53	X54	Y54	Z54	

86	0.85	942.2892456054688	978.3302612304688	3.351542949676514	931.9127807617188	970.8031616210938	-127.5374221801758	942.1915283203125	1041.14306640625	-59.31585693359375	1172.149658203125	1210.35791015625	-62.83611297607422	930.9652099609375	1142.188354492188	-65.12867736816406	947.6317749023438	1393.625854492188	-78.097412109375	1111.217407226562	1326.570068359375	-66.93507385253906	915.4365234375	1245.656860351562	-8.101296424865723	941.4842529296875	1352.695190429688	-182.0973510742188	1030.52783203125	1374.549194335938	-230.3121643066406	1019.975036621094	1254.441284179688	-298.766357421875	1056.249633789062	1058.8818359375	-315.9010925292969	997.2228393554688	1035.11767578125	-257.5997619628906	1166.6484375	856.3894653320312	-261.8808288574219	1118.695678710938	834.0814208984375	-325.3158569335938	1082.689819335938	955.6654052734375	-320.8160705566406	1180.835327148438	676.339599609375	-254.567138671875	1141.284423828125	750.9758911132812	-313.6522521972656	1007.866882324219	1377.443359375	85.07009124755859	1000.700073242188	1311.387939453125	144.7589111328125	1036.835815429688	1052.431518554688	186.2813568115234	1015.194641113281	1036.967529296875	96.10007476806641	1181.635498046875	847.5421752929688	157.0736236572266	1143.468017578125	835.0950927734375	219.0915374755859	1069.874267578125	990.5073852539062	202.1541442871094	1191.458129882812	675.7227783203125	161.180908203125	1208.336669921875	744.5084838867188	177.7821350097656	1152.9404296875	745.3919067382812	219.7559051513672	980.7904052734375	1589.639770507812	7.548986434936523	1139.916137695312	1591.34765625	-113.0449676513672	1115.381469726562	1594.174194335938	6.983410358428955	995.9359130859375	1584.951049804688	-152.6855010986328	1029.4072265625	953.6741333007812	116.5662384033203	1158.465942382812	963.1284790039062	58.05220794677734	1134.892456054688	957.5739135742188	-205.2617340087891	1039.24658203125	465.6190185546875	-225.1243133544922	1040.988037109375	609.1826782226562	-236.0115051269531	919.306640625	34.63547515869141	-191.0602874755859	975.337890625	238.2559356689453	-221.0950775146484	1134.3525390625	29.68528175354004	-124.4574279785156	1051.793090820312	32.89088439941406	-94.88895416259766	1046.89892578125	32.30517196655273	-199.2925720214844	879.4940185546875	28.70461654663086	-136.2203674316406	1036.977661132812	466.354736328125	93.92371368408203	1095.912841796875	727.8919067382812	115.4048690795898	959.8062744140625	46.36444091796875	62.54176330566406	1035.36669921875	340.2503356933594	79.63092803955078	1138.337890625	29.71847724914551	-4.400303840637207	1062.43896484375	35.20991516113281	-30.56059074401855	1044.615844726562	37.20094680786133	66.25594329833984	883.9842529296875	33.40003204345703	9.687113761901855	1194.426513671875	760.6431274414062	-278.1614685058594	1019.028869628906	956.6116333007812	-243.3874816894531	nan	nan	nan	
87	0.86	942.1801147460938	978.3221435546875	3.370341777801514	931.80322265625	970.8045654296875	-127.5178604125977	942.1495361328125	1041.148071289062	-59.26358795166016	1172.02880859375	1210.374755859375	-62.8083381652832	930.8872680664062	1142.193481445312	-65.09479522705078	947.50341796875	1393.616577148438	-78.02364349365234	1111.09228515625	1326.595336914062	-66.880615234375	915.3106079101562	1245.684814453125	-8.028743743896484	941.3786010742188	1352.713500976562	-182.0296478271484	1030.423461914062	1374.579956054688	-230.2755126953125	1019.849426269531	1254.475463867188	-298.7257995605469	1056.100219726562	1058.899536132812	-315.8595581054688	997.0684814453125	1035.11474609375	-257.5495300292969	1166.550537109375	856.390625	-261.8606262207031	1118.55615234375	834.1038208007812	-325.3079223632812	1082.536254882812	955.7069702148438	-320.7834167480469	1180.624389648438	676.34423828125	-254.5536804199219	1141.141479492188	751.0069580078125	-313.6238098144531	1007.673278808594	1377.433471679688	85.11557006835938	1000.55810546875	1311.385620117188	144.8072052001953	1036.634155273438	1052.409912109375	186.3045654296875	1015.130432128906	1036.955444335938	96.13611602783203	1181.479125976562	847.5039672851562	157.1329803466797	1143.291381835938	835.0670166015625	219.1501770019531	1069.736938476562	990.4848022460938	202.21923828125	1191.217895507812	675.6771850585938	161.2157745361328	1208.119873046875	744.4085083007812	177.8232269287109	1152.772705078125	745.3658447265625	219.8244323730469	980.7024536132812	1589.624145507812	7.620261192321777	1139.865234375	1591.313354492188	-112.9323654174805	1115.3515625	1594.150512695312	7.053887367248535	995.8773193359375	1584.946044921875	-152.5687255859375	1029.623413085938	953.6126098632812	116.6198120117188	1158.38671875	963.1287841796875	58.09722518920898	1134.783325195312	957.572021484375	-205.2666015625	1039.177124023438	465.6382141113281	-225.1064758300781	1040.89013671875	609.1896362304688	-235.9987945556641	919.2919921875	34.62028884887695	-191.0594177246094	975.3151245117188	238.2461242675781	-221.0861053466797	1134.352783203125	29.68654632568359	-124.4585266113281	1051.871826171875	32.92775726318359	-94.87373352050781	1046.89453125	32.30376052856445	-199.2884979248047	879.4871215820312	28.69023704528809	-136.2120361328125	1036.882202148438	466.347412109375	93.93655395507812	1095.876220703125	727.71240234375	115.4871826171875	959.8141479492188	46.36091613769531	62.54520034790039	1035.292114257812	340.2565612792969	79.64962005615234	1138.32861328125	29.73108291625977	-4.40032958984375	1062.435302734375	35.21590805053711	-30.56218338012695	1044.61865234375	37.20829391479492	66.25888824462891	883.9920654296875	33.38589859008789	9.706320762634277	1194.284423828125	760.6633911132812	-278.0916137695312	1018.880981445312	956.58642578125	-243.408935546875	nan	nan	nan	
88	0.87	942.0578002929688	978.3163452148438	3.389719247817993	931.6996459960938	970.805419921875	-127.4962692260742	942.1016235351562	1041.154418945312	-59.21380233764648	1171.914428710938	1210.39013671875	-62.77663421630859	930.8030395507812	1142.204467773438	-65.06178283691406	947.3893432617188	1393.611083984375	-77.9547119140625	1110.961059570312	1326.609741210938	-66.82019805908203	915.1390380859375	1245.713012695312	-7.973249435424805	941.2826538085938	1352.741577148438	-181.972412109375	1030.323364257812	1374.608764648438	-230.2375335693359	1019.735900878906	1254.51806640625	-298.6919555664062	1055.96142578125	1058.919189453125	-315.8291625976562	996.9198608398438	1035.118408203125	-257.5099487304688	1166.460571289062	856.39013671875	-261.838623046875	1118.418212890625	834.1292724609375	-325.3023376464844	1082.388916015625	955.7492065429688	-320.7539672851562	1180.425659179688	676.3572998046875	-254.5396270751953	1141.002197265625	751.0386352539062	-313.5952453613281	1007.484436035156	1377.428344726562	85.16094970703125	1000.389099121094	1311.388916015625	144.8391723632812	1036.431396484375	1052.388671875	186.3168334960938	1015.06884765625	1036.9443359375	96.16663360595703	1181.314453125	847.46484375	157.1786041259766	1143.0986328125	835.0355834960938	219.1963043212891	1069.599243164062	990.4606323242188	202.2776641845703	1190.933471679688	675.6192626953125	161.2160949707031	1207.906494140625	744.2935180664062	177.8515930175781	1152.552856445312	745.326904296875	219.8605041503906	980.6329956054688	1589.615478515625	7.688767433166504	1139.817626953125	1591.29052734375	-112.8198471069336	1115.318969726562	1594.137939453125	7.127735614776611	995.825927734375	1584.94189453125	-152.4549407958984	1029.815551757812	953.5559692382812	116.6685485839844	1158.300415039062	963.1315307617188	58.13471221923828	1134.662353515625	957.549560546875	-205.2497100830078	1039.112915039062	465.6578979492188	-225.0861053466797	1040.786865234375	609.193115234375	-235.9847106933594	919.2772216796875	34.60577392578125	-191.0584259033203	975.2930297851562	238.237060546875	-221.0773468017578	1134.353149414062	29.6875	-124.4597244262695	1051.958251953125	32.96710968017578	-94.85661315917969	1046.891479492188	32.30337142944336	-199.2863311767578	879.4803466796875	28.67542839050293	-136.2051849365234	1036.796997070312	466.3439636230469	93.94951629638672	1095.857055664062	727.5310668945312	115.5352249145508	959.8213500976562	46.35815048217773	62.54985809326172	1035.2265625	340.2631225585938	79.66605377197266	1138.319580078125	29.74262237548828	-4.400268077850342	1062.431762695312	35.2208137512207	-30.56427001953125	1044.621948242188	37.21268844604492	66.26290893554688	883.9967041015625	33.3734130859375	9.722407341003418	1194.14892578125	760.7020263671875	-278.0359497070312	1018.721252441406	956.5406494140625	-243.4086303710938	nan	nan	nan	
89	0.88	941.9242553710938	978.312255859375	3.410259008407593	931.6010131835938	970.8056640625	-127.4729919433594	942.0457153320312	1041.161865234375	-59.16728973388672	1171.80810546875	1210.403930664062	-62.74382019042969	930.7105712890625	1142.221069335938	-65.03006744384766	947.2887573242188	1393.609741210938	-77.89202117919922	1110.822875976562	1326.612670898438	-66.75375366210938	914.9197387695312	1245.740966796875	-7.937821388244629	941.1947021484375	1352.780151367188	-181.9266204833984	1030.227905273438	1374.635986328125	-230.1988372802734	1019.635620117188	1254.568237304688	-298.6655578613281	1055.83447265625	1058.941162109375	-315.8104248046875	996.7788696289062	1035.129760742188	-257.4823608398438	1166.3759765625	856.388916015625	-261.8143005371094	1118.284057617188	834.157470703125	-325.299072265625	1082.247802734375	955.7920532226562	-320.7286376953125	1180.24365234375	676.3775634765625	-254.5233764648438	1140.865966796875	751.0697631835938	-313.5663452148438	1007.303100585938	1377.427734375	85.20555114746094	1000.190795898438	1311.396850585938	144.8529205322266	1036.232055664062	1052.36865234375	186.3199462890625	1015.009582519531	1036.934692382812	96.19155883789062	1181.139770507812	847.4261474609375	157.210693359375	1142.889892578125	835.0012817382812	219.2302551269531	1069.458251953125	990.4353637695312	202.3281860351562	1190.614990234375	675.5518188476562	161.1869964599609	1207.700073242188	744.1719360351562	177.8703308105469	1152.282470703125	745.27587890625	219.86474609375	980.5833740234375	1589.613403320312	7.754705429077148	1139.773803710938	1591.279174804688	-112.7093658447266	1115.283203125	1594.134399414062	7.208185195922852	995.7814331054688	1584.940551757812	-152.3450622558594	1029.96630859375	953.5087890625	116.7111129760742	1158.205078125	963.1365966796875	58.16416931152344	1134.529663085938	957.507568359375	-205.2106323242188	1039.054809570312	465.6778564453125	-225.0633544921875	1040.679565429688	609.193603515625	-235.9694366455078	919.2631225585938	34.59292984008789	-191.0574798583984	975.2719116210938	238.2292785644531	-221.0687866210938	1134.353515625	29.68815994262695	-124.4609069824219	1052.046875	33.00637054443359	-94.83853149414062	1046.890014648438	32.30377960205078	-199.2860870361328	879.4736328125	28.66043090820312	-136.2000885009766	1036.72216796875	466.3444213867188	93.96250915527344	1095.84716796875	727.354248046875	115.5588531494141	959.8271484375	46.35590744018555	62.55509567260742	1035.170654296875	340.2698974609375	79.68040466308594	1138.310546875	29.75226402282715	-4.399878025054932	1062.4287109375	35.22466659545898	-30.56659698486328	1044.625610351562	37.21449279785156	66.26761627197266	883.99951171875	33.36265182495117	9.735713958740234	1194.020874023438	760.7572631835938	-277.9955139160156	1018.549682617188	956.47509765625	-243.3860473632812	nan	nan	nan	
